<svg width="1624" height="1854" viewBox="0 0 1624 1854" fill="none" xmlns="http://www.w3.org/2000/svg">
<path d="M0 615.266C0 400.058 174.428 225.597 389.596 225.597H1099.07C1314.24 225.597 1488.67 400.058 1488.67 615.266V1464.33C1488.67 1679.54 1314.24 1854 1099.07 1854H389.596C174.428 1854 0 1679.54 0 1464.33V615.266Z" fill="#2E3C6F"/>
<path d="M135.333 418.381C135.333 237.153 282.22 90.239 463.414 90.239H1295.92C1477.11 90.239 1624 237.153 1624 418.381V1386.4C1624 1567.63 1477.11 1714.54 1295.92 1714.54H463.414C282.22 1714.54 135.333 1567.63 135.333 1386.4V418.381Z" fill="#546ECA"/>
<path d="M1247.04 412.375C1219.7 428.507 1185.19 408.795 1185.19 377.048V132.175C1185.19 109.522 1185.81 61.5265 1185.81 61.5265L1483.13 61.5266C1483.13 61.5266 1482.69 109.522 1482.69 132.175V377.047C1482.69 408.795 1448.18 428.507 1420.84 412.375L1354.78 373.391C1341.92 365.804 1325.96 365.804 1313.1 373.391L1247.04 412.375Z" fill="#9CACE4"/>
<path d="M1185.81 61.5265C1185.81 27.5464 1213.35 9.105e-06 1247.33 7.61968e-06L1421.61 0C1455.59 -1.48532e-06 1483.13 27.5464 1483.13 61.5266L1185.81 61.5265Z" fill="#9CACE4"/>
<path d="M502.926 1171.86C476.574 1145.5 476.574 1102.77 502.926 1076.41L725.596 853.7C751.949 827.342 794.674 827.342 821.026 853.7C847.379 880.057 847.379 922.79 821.026 949.147L598.356 1171.86C572.004 1198.22 529.279 1198.22 502.926 1171.86Z" fill="#9CACE4"/>
<path d="M503.472 630.175C529.824 603.818 572.55 603.818 598.902 630.175L821.574 852.888C847.926 879.246 847.926 921.979 821.574 948.336C795.222 974.693 752.496 974.693 726.144 948.336L503.472 725.623C477.12 699.266 477.12 656.532 503.472 630.175Z" fill="white"/>
<path d="M852.719 1136.97C852.719 1099.69 882.93 1069.48 920.198 1069.48H1235.1C1272.37 1069.48 1302.58 1099.69 1302.58 1136.97C1302.58 1174.24 1272.37 1204.46 1235.1 1204.46H920.198C882.93 1204.46 852.719 1174.24 852.719 1136.97Z" fill="white"/>
</svg>
