<svg width="1658" height="1854" viewBox="0 0 1658 1854" fill="none" xmlns="http://www.w3.org/2000/svg">
<path d="M1185.43 252.099C1128.79 252.099 1100.47 252.099 1082.88 234.505C1065.29 216.91 1065.29 188.592 1065.29 131.956V121.64C1065.28 62.5571 1065.29 33.0155 1083.88 15.2675C1102.47 -2.48045 1131.98 -1.11144 1191 1.62659L1307.59 7.03521C1355.05 9.23728 1378.79 10.3383 1397.27 19.2893C1418.98 29.8044 1436.17 47.8062 1445.67 69.9833C1453.75 88.8615 1453.75 112.62 1453.75 160.138C1453.75 189.87 1453.75 204.735 1448.61 216.354C1442.56 230.001 1431.66 240.909 1418.01 246.953C1406.39 252.099 1391.52 252.099 1361.79 252.099L1185.43 252.099Z" fill="#B4BEFE"/>
<path d="M1453.75 1061.06C1453.75 1753.88 1453.75 1854 726.877 1854C96.1159 1854 0 1751.88 0 1061.06C0 370.237 94.1135 268.115 726.877 268.115C1359.64 268.115 1453.75 368.234 1453.75 1061.06Z" fill="#444D88"/>
<path d="M1658 848.805C1658 1541.63 1658 1641.75 931.123 1641.75C300.362 1641.75 204.246 1539.63 204.246 848.805C204.246 157.984 298.36 55.8627 931.123 55.8627C1563.89 55.8627 1658 155.982 1658 848.805Z" fill="#7287FD"/>
<path d="M1250.61 436.53C1196.74 468.46 1169.81 484.425 1149.59 472.904C1129.36 461.382 1129.36 430.193 1129.36 367.814V196.703C1129.36 158.946 1129.36 140.068 1141.09 128.338C1152.82 116.608 1171.7 116.608 1209.46 116.608L1373.66 116.608C1411.41 116.608 1430.29 116.608 1442.02 128.338C1453.75 140.068 1453.75 158.946 1453.75 196.703V367.814C1453.75 430.193 1453.75 461.382 1433.53 472.904C1413.31 484.425 1386.37 468.46 1332.5 436.53C1312.53 424.688 1302.54 418.766 1291.56 418.766C1280.58 418.766 1270.59 424.688 1250.61 436.53Z" fill="#B4BEFE"/>
<path d="M1249.51 254.461C1192.87 254.461 1164.55 254.461 1146.96 236.866C1129.36 219.272 1129.36 190.954 1129.36 134.318V125.242C1129.36 66.3297 1129.36 36.8735 1147.88 19.135C1166.41 1.39655 1195.84 2.66819 1254.69 5.21147L1305.93 7.42552C1354.65 9.53038 1379 10.5828 1397.9 19.8965C1419.01 30.3022 1435.78 47.8125 1445.26 69.3529C1453.75 88.6329 1453.75 113.011 1453.75 161.768C1453.75 192.188 1453.75 207.397 1448.37 219.24C1442.36 232.468 1431.76 243.069 1418.53 249.079C1406.69 254.461 1391.48 254.461 1361.06 254.461H1249.51Z" fill="#B4BEFE"/>
<path d="M1249.51 254.461C1192.87 254.461 1164.55 254.461 1146.96 236.866C1129.36 219.272 1129.36 190.954 1129.36 134.318V125.242C1129.36 66.3297 1129.36 36.8735 1147.88 19.135C1166.41 1.39655 1195.84 2.66819 1254.69 5.21147L1305.93 7.42552C1354.65 9.53038 1379 10.5828 1397.9 19.8965C1419.01 30.3022 1435.78 47.8125 1445.26 69.3529C1453.75 88.6329 1453.75 113.011 1453.75 161.768C1453.75 192.188 1453.75 207.397 1448.37 219.24C1442.36 232.468 1431.76 243.069 1418.53 249.079C1406.69 254.461 1391.48 254.461 1361.06 254.461H1249.51Z" fill="#B4BEFE"/>
<path d="M609.278 1077.8C586.86 1055.38 586.86 1019.03 609.278 996.615L798.707 807.19C821.125 784.772 857.473 784.772 879.891 807.19C902.309 829.608 902.309 865.954 879.891 888.372L690.462 1077.8C668.044 1100.22 631.696 1100.22 609.278 1077.8Z" fill="#B4BEFE"/>
<path d="M609.742 617.073C632.16 594.655 668.508 594.655 690.926 617.073L880.357 806.5C902.775 828.918 902.775 865.265 880.357 887.682C857.938 910.1 821.591 910.1 799.173 887.682L609.742 698.255C587.324 675.837 587.324 639.491 609.742 617.073Z" fill="white"/>
<path d="M906.851 1048.12C906.851 1016.42 932.553 990.717 964.257 990.717H1232.15C1263.85 990.717 1289.56 1016.42 1289.56 1048.12C1289.56 1079.83 1263.85 1105.53 1232.15 1105.53H964.257C932.553 1105.53 906.851 1079.83 906.851 1048.12Z" fill="white"/>
<path d="M1069.29 55.8661H1133.37V115.937H1069.29V55.8661Z" fill="#B4BEFE"/>
<path d="M1129.36 135.961C1129.36 205.943 1129.36 216.056 1027.24 216.056C938.62 216.056 925.116 205.741 925.116 135.961C925.116 66.1813 938.338 55.8661 1027.24 55.8661C1116.14 55.8661 1129.36 65.9791 1129.36 135.961Z" fill="#7287FD"/>
</svg>
