<svg width="906" height="148" viewBox="0 0 906 148" fill="none" xmlns="http://www.w3.org/2000/svg">
    <path d="M95.0918 20.1244C90.5485 20.1244 88.2769 20.1244 86.8655 18.7199C85.4541 17.3154 85.4541 15.0548 85.4541 10.5337V9.71023C85.4541 4.99377 85.4541 2.63554 86.9454 1.21877C88.4367 -0.198008 90.8039 -0.0887231 95.5384 0.129846L104.891 0.561602C108.699 0.737388 110.602 0.825281 112.085 1.53981C113.827 2.37921 115.206 3.81625 115.967 5.58659C116.616 7.09358 116.616 8.9902 116.616 12.7834C116.616 15.1568 116.616 16.3435 116.203 17.271C115.718 18.3604 114.843 19.2311 113.749 19.7136C112.816 20.1244 111.624 20.1244 109.239 20.1244L95.0918 20.1244Z" fill="#B4BEFE"/>
    <path d="M116.616 84.7015C116.616 140.008 116.616 148 58.308 148C7.71014 148 0 139.848 0 84.7015C0 29.555 7.54952 21.4029 58.308 21.4029C109.066 21.4029 116.616 29.3952 116.616 84.7015Z" fill="#444D88"/>
    <path d="M133 67.7579C133 123.064 133 131.056 74.692 131.056C24.0942 131.056 16.3841 122.904 16.3841 67.7579C16.3841 12.6115 23.9336 4.45937 74.692 4.45937C125.45 4.45937 133 12.4516 133 67.7579Z" fill="#7287FD"/>
    <path d="M100.32 34.8471C95.9993 37.396 93.8387 38.6704 92.2165 37.7507C90.5942 36.8309 90.5942 34.3412 90.5942 29.3616V15.7023C90.5942 12.6883 90.5942 11.1812 91.5351 10.2449C92.4761 9.30853 93.9905 9.30853 97.0193 9.30853L110.191 9.30853C113.22 9.30853 114.734 9.30853 115.675 10.2449C116.616 11.1812 116.616 12.6883 116.616 15.7023V29.3616C116.616 34.3412 116.616 36.8309 114.994 37.7507C113.371 38.6704 111.211 37.396 106.89 34.8471C105.287 33.9017 104.486 33.429 103.605 33.429C102.724 33.429 101.923 33.9017 100.32 34.8471Z" fill="#B4BEFE"/>
    <path d="M100.232 20.3129C95.6886 20.3129 93.417 20.3129 92.0056 18.9084C90.5942 17.5039 90.5942 15.2433 90.5942 10.7222V9.99775C90.5942 5.29493 90.5942 2.94351 92.08 1.5275C93.5657 0.111483 95.9265 0.212995 100.648 0.416018L104.758 0.59276C108.666 0.760786 110.62 0.844798 112.135 1.58829C113.829 2.41894 115.174 3.81675 115.935 5.53626C116.616 7.07533 116.616 9.02141 116.616 12.9136C116.616 15.3418 116.616 16.556 116.184 17.5013C115.702 18.5573 114.852 19.4036 113.791 19.8834C112.841 20.3129 111.62 20.3129 109.18 20.3129H100.232Z" fill="#B4BEFE"/>
    <path d="M100.232 20.3129C95.6886 20.3129 93.417 20.3129 92.0056 18.9084C90.5942 17.5039 90.5942 15.2433 90.5942 10.7222V9.99775C90.5942 5.29493 90.5942 2.94351 92.08 1.5275C93.5657 0.111483 95.9265 0.212995 100.648 0.416018L104.758 0.59276C108.666 0.760786 110.62 0.844798 112.135 1.58829C113.829 2.41894 115.174 3.81675 115.935 5.53626C116.616 7.07533 116.616 9.02141 116.616 12.9136C116.616 15.3418 116.616 16.556 116.184 17.5013C115.702 18.5573 114.852 19.4036 113.791 19.8834C112.841 20.3129 111.62 20.3129 109.18 20.3129H100.232Z" fill="#B4BEFE"/>
    <path d="M48.8745 86.0378C47.0762 84.2482 47.0762 81.3468 48.8745 79.5572L64.07 64.4358C65.8683 62.6463 68.784 62.6463 70.5823 64.4358C72.3807 66.2254 72.3807 69.1269 70.5823 70.9164L55.3869 86.0378C53.5885 87.8274 50.6729 87.8274 48.8745 86.0378Z" fill="#B4BEFE"/>
    <path d="M48.9118 49.2593C50.7101 47.4697 53.6258 47.4697 55.4241 49.2593L70.6197 64.3808C72.418 66.1704 72.418 69.0718 70.6197 70.8614C68.8214 72.6509 65.9057 72.6509 64.1073 70.8614L48.9118 55.7399C47.1134 53.9503 47.1134 51.0489 48.9118 49.2593Z" fill="white"/>
    <path d="M72.745 83.6688C72.745 81.138 74.8067 79.0863 77.3499 79.0863H98.8396C101.383 79.0863 103.444 81.138 103.444 83.6688C103.444 86.1996 101.383 88.2513 98.8396 88.2513H77.3499C74.8067 88.2513 72.745 86.1996 72.745 83.6688Z" fill="white"/>
    <path d="M85.7754 4.45964H90.9155V9.25498H85.7754V4.45964Z" fill="#B4BEFE"/>
    <path d="M90.5942 10.8534C90.5942 16.4399 90.5942 17.2472 82.4022 17.2472C75.2934 17.2472 74.2101 16.4238 74.2101 10.8534C74.2101 5.28308 75.2708 4.45964 82.4022 4.45964C89.5335 4.45964 90.5942 5.26694 90.5942 10.8534Z" fill="#7287FD"/>
    <path d="M239.152 120.664C233.093 120.664 227.397 119.469 222.064 117.08C216.731 114.648 212.037 111.32 207.984 107.096C203.973 102.829 200.816 97.88 198.512 92.248C196.251 86.616 195.12 80.6 195.12 74.2C195.12 67.8 196.251 61.784 198.512 56.152C200.816 50.52 203.973 45.592 207.984 41.368C212.037 37.1013 216.731 33.7733 222.064 31.384C227.397 28.952 233.093 27.736 239.152 27.736C246.405 27.736 253.083 29.4213 259.184 32.792C265.285 36.1627 270.341 40.6427 274.352 46.232L262.512 52.568C259.739 49.0693 256.304 46.2747 252.208 44.184C248.112 42.0933 243.76 41.048 239.152 41.048C234.885 41.048 230.896 41.9227 227.184 43.672C223.472 45.4213 220.208 47.8107 217.392 50.84C214.576 53.8693 212.379 57.3893 210.8 61.4C209.221 65.4107 208.432 69.6773 208.432 74.2C208.432 78.7653 209.221 83.0533 210.8 87.064C212.379 91.032 214.576 94.552 217.392 97.624C220.251 100.653 223.536 103.043 227.248 104.792C230.96 106.499 234.928 107.352 239.152 107.352C243.845 107.352 248.219 106.307 252.272 104.216C256.368 102.083 259.781 99.2667 262.512 95.768L274.352 102.232C270.341 107.821 265.285 112.301 259.184 115.672C253.083 119 246.405 120.664 239.152 120.664ZM330.59 120.664C324.531 120.664 318.835 119.469 313.502 117.08C308.169 114.648 303.475 111.299 299.422 107.032C295.369 102.765 292.19 97.8373 289.886 92.248C287.582 86.616 286.43 80.6 286.43 74.2C286.43 67.8 287.582 61.8053 289.886 56.216C292.19 50.584 295.369 45.6347 299.422 41.368C303.475 37.1013 308.169 33.7733 313.502 31.384C318.835 28.952 324.531 27.736 330.59 27.736C336.691 27.736 342.409 28.952 347.742 31.384C353.075 33.7733 357.769 37.1013 361.822 41.368C365.875 45.6347 369.033 50.584 371.294 56.216C373.598 61.8053 374.75 67.8 374.75 74.2C374.75 80.6 373.598 86.616 371.294 92.248C369.033 97.8373 365.875 102.765 361.822 107.032C357.769 111.299 353.075 114.648 347.742 117.08C342.409 119.469 336.691 120.664 330.59 120.664ZM330.59 107.352C334.857 107.352 338.846 106.477 342.558 104.728C346.27 102.979 349.534 100.589 352.35 97.56C355.209 94.488 357.427 90.968 359.006 87C360.627 82.9893 361.438 78.7227 361.438 74.2C361.438 69.6773 360.627 65.4107 359.006 61.4C357.427 57.3893 355.209 53.8693 352.35 50.84C349.534 47.768 346.27 45.3787 342.558 43.672C338.846 41.9227 334.857 41.048 330.59 41.048C326.323 41.048 322.334 41.9227 318.622 43.672C314.91 45.4213 311.625 47.832 308.766 50.904C305.95 53.9333 303.731 57.4533 302.11 61.464C300.531 65.432 299.742 69.6773 299.742 74.2C299.742 78.7653 300.531 83.0533 302.11 87.064C303.731 91.032 305.95 94.552 308.766 97.624C311.625 100.653 314.91 103.043 318.622 104.792C322.334 106.499 326.323 107.352 330.59 107.352ZM389.425 119V29.4H419.057C425.244 29.4 431.046 30.5733 436.465 32.92C441.884 35.224 446.641 38.4453 450.737 42.584C454.833 46.68 458.033 51.4373 460.337 56.856C462.684 62.232 463.857 68.0133 463.857 74.2C463.857 80.3867 462.684 86.1893 460.337 91.608C458.033 96.984 454.833 101.741 450.737 105.88C446.641 109.976 441.884 113.197 436.465 115.544C431.046 117.848 425.244 119 419.057 119H389.425ZM402.737 105.688H419.057C423.409 105.688 427.462 104.877 431.217 103.256C435.014 101.635 438.364 99.3733 441.265 96.472C444.209 93.5707 446.492 90.2213 448.113 86.424C449.734 82.6267 450.545 78.552 450.545 74.2C450.545 69.848 449.734 65.7733 448.113 61.976C446.492 58.1787 444.209 54.8293 441.265 51.928C438.364 49.0267 435.014 46.7653 431.217 45.144C427.462 43.5227 423.409 42.712 419.057 42.712H402.737V105.688ZM477.36 119V29.4H532.976V42.712H490.672V64.344H524.72V77.656H490.672V105.688H532.976V119H477.36ZM550.17 119V29.4H581.018C585.839 29.4 590.191 30.5947 594.074 32.984C597.999 35.3733 601.114 38.5947 603.418 42.648C605.765 46.7013 606.938 51.1813 606.938 56.088C606.938 61.08 605.743 65.6027 603.354 69.656C601.007 73.6667 597.871 76.8667 593.946 79.256C590.021 81.6453 585.711 82.84 581.018 82.84H563.482V119H550.17ZM563.482 69.528H579.674C582.234 69.528 584.559 68.888 586.65 67.608C588.783 66.328 590.469 64.6213 591.706 62.488C592.986 60.3547 593.626 57.944 593.626 55.256C593.626 52.568 592.986 50.1573 591.706 48.024C590.469 45.848 588.783 44.1413 586.65 42.904C584.559 41.624 582.234 40.984 579.674 40.984H563.482V69.528ZM621.73 119V29.4H677.346V42.712H635.042V64.344H669.09V77.656H635.042V105.688H677.346V119H621.73ZM694.54 119V29.4H724.172C730.359 29.4 736.161 30.5733 741.58 32.92C746.999 35.224 751.756 38.4453 755.852 42.584C759.948 46.68 763.148 51.4373 765.452 56.856C767.799 62.232 768.972 68.0133 768.972 74.2C768.972 80.3867 767.799 86.1893 765.452 91.608C763.148 96.984 759.948 101.741 755.852 105.88C751.756 109.976 746.999 113.197 741.58 115.544C736.161 117.848 730.359 119 724.172 119H694.54ZM707.852 105.688H724.172C728.524 105.688 732.577 104.877 736.332 103.256C740.129 101.635 743.479 99.3733 746.38 96.472C749.324 93.5707 751.607 90.2213 753.228 86.424C754.849 82.6267 755.66 78.552 755.66 74.2C755.66 69.848 754.849 65.7733 753.228 61.976C751.607 58.1787 749.324 54.8293 746.38 51.928C743.479 49.0267 740.129 46.7653 736.332 45.144C732.577 43.5227 728.524 42.712 724.172 42.712H707.852V105.688ZM784.395 119V29.4H797.707V119H784.395ZM847.551 29.4H863.103L895.679 119H881.599L875.391 101.976H835.263L829.119 119H814.975L847.551 29.4ZM840.191 88.664H870.463L855.295 47.064L840.191 88.664Z" fill="#EAEDFBFF"/>
</svg>
